<?xml version="1.0" encoding="utf-8"?>
<!-- Generator: Adobe Illustrator 19.1.1, SVG Export Plug-In . SVG Version: 6.00 Build 0)  -->
<svg version="1.1" id="Laag_1" xmlns="http://www.w3.org/2000/svg" xmlns:xlink="http://www.w3.org/1999/xlink" x="0px" y="0px"
	 viewBox="191.6 224.8 340.4 109.8" style="enable-background:new 191.6 224.8 340.4 109.8;" xml:space="preserve">
<style type="text/css">
	.st0{fill:#26437F;}
	.st1{fill:url(#SVGID_1_);}
	.st2{fill:url(#SVGID_2_);}
	.st3{fill:url(#SVGID_3_);}
	.st4{fill:url(#SVGID_4_);}
	.st5{fill:url(#SVGID_5_);}
</style>
<g id="entiteit">
	<g>
		<path class="st0" d="M207.8,318.3h-1.5v-1.8h1.5v-2.8l2.3-0.9v3.6h3.6v1.8h-3.6v6.5c0,1.1,0.2,1.9,0.6,2.3c0.4,0.5,1,0.7,1.8,0.7
			c0.6,0,1.2-0.2,1.8-0.5l0.3,2c-1,0.2-2,0.4-3.2,0.4c-1,0-1.9-0.4-2.6-1.2c-0.7-0.8-1.1-1.7-1.1-2.9v-7.2H207.8z"/>
		<path class="st0" d="M216.1,323c0-2,0.5-3.6,1.6-4.9c1.1-1.2,2.5-1.9,4.3-1.9c1.9,0,3.3,0.6,4.4,1.8c1,1.2,1.6,2.8,1.6,5
			c0,2.1-0.5,3.8-1.6,5s-2.5,1.8-4.3,1.8c-1.9,0-3.3-0.6-4.4-1.8C216.6,326.7,216.1,325,216.1,323z M218.5,323
			c0,3.3,1.2,4.9,3.5,4.9c1.1,0,1.9-0.4,2.5-1.3s0.9-2.1,0.9-3.6c0-3.2-1.2-4.9-3.5-4.9c-1.1,0-1.9,0.4-2.5,1.3
			C218.8,320.3,218.5,321.4,218.5,323z"/>
		<path class="st0" d="M231.2,318.3h-1.5v-1.8h1.5v-2.8l2.3-0.9v3.6h3.6v1.8h-3.6v6.5c0,1.1,0.2,1.9,0.6,2.3c0.4,0.5,1,0.7,1.8,0.7
			c0.6,0,1.2-0.2,1.8-0.5l0.3,2c-1,0.2-2,0.4-3.2,0.4c-1,0-1.9-0.4-2.6-1.2c-0.7-0.8-1.1-1.7-1.1-2.9v-7.2H231.2z"/>
		<path class="st0" d="M247.6,328c-0.9,1.2-2.3,1.7-4.3,1.7c-1,0-1.9-0.4-2.7-1.1c-0.8-0.7-1.1-1.7-1.1-2.8c0-1.3,0.6-2.4,1.7-3.4
			c1.2-0.9,2.6-1.4,4.4-1.4c0.5,0,1,0.1,1.7,0.3c0-2.1-0.9-3.2-2.8-3.2c-1.4,0-2.6,0.4-3.3,1.2l-1-1.9c0.4-0.4,1-0.7,1.8-0.9
			c0.8-0.3,1.5-0.4,2.2-0.4c1.9,0,3.3,0.4,4.1,1.3c0.9,0.9,1.3,2.2,1.3,4.1v4.7c0,1.1,0.3,1.9,1,2.3v1.2c-0.9,0-1.6-0.1-2.1-0.4
			C248.2,329.1,247.8,328.6,247.6,328z M247.4,323.1c-0.7-0.2-1.2-0.2-1.5-0.2c-1.2,0-2.1,0.3-2.9,0.9c-0.7,0.6-1.1,1.3-1.1,2.1
			c0,1.4,0.8,2,2.4,2c1.2,0,2.2-0.6,3.1-1.7V323.1z"/>
		<path class="st0" d="M253.6,325.8v-14.7h2.3v14.3c0,0.7,0.2,1.3,0.6,1.7c0.4,0.4,0.9,0.6,1.6,0.6v2.1
			C255.1,329.8,253.6,328.5,253.6,325.8z"/>
		<path class="st0" d="M270.3,329.5v-11.1h-1.8v-2h4.1v13.1H270.3z M271.6,311.5c0.4,0,0.7,0.1,1,0.4s0.4,0.6,0.4,1s-0.1,0.7-0.4,1
			s-0.6,0.4-1,0.4s-0.7-0.1-1-0.4s-0.4-0.6-0.4-1s0.1-0.7,0.4-1C270.8,311.6,271.2,311.5,271.6,311.5z"/>
		<path class="st0" d="M284.3,329.5v-7.6c0-1.4-0.2-2.4-0.6-2.9c-0.4-0.6-1.1-0.8-2.1-0.8c-0.5,0-1.1,0.2-1.7,0.5s-1,0.7-1.3,1.2
			v9.7h-2.3v-13.1h1.6l0.7,1.7c0.8-1.3,2-1.9,3.7-1.9c2.9,0,4.3,1.7,4.3,5.2v8.1h-2.3V329.5z"/>
		<path class="st0" d="M290.8,318.3h-1.5v-1.8h1.5v-2.8l2.3-0.9v3.6h3.6v1.8h-3.6v6.5c0,1.1,0.2,1.9,0.6,2.3c0.4,0.5,1,0.7,1.8,0.7
			c0.6,0,1.2-0.2,1.8-0.5l0.3,2c-1,0.2-2,0.4-3.2,0.4c-1,0-1.9-0.4-2.6-1.2c-0.7-0.8-1.1-1.7-1.1-2.9v-7.2H290.8z"/>
		<path class="st0" d="M310.9,323.2h-9.4c0,1.5,0.4,2.7,1.3,3.5c0.7,0.7,1.7,1.1,2.9,1.1c1.3,0,2.4-0.4,3.3-1.2l1,1.7
			c-0.4,0.4-0.9,0.7-1.6,0.9c-0.9,0.3-2,0.5-3.1,0.5c-1.6,0-3-0.6-4.2-1.7c-1.3-1.2-1.9-2.9-1.9-5c0-2.2,0.7-3.9,2-5.2
			c1.2-1.2,2.6-1.7,4.2-1.7c1.9,0,3.3,0.5,4.4,1.6c1,1,1.5,2.3,1.5,4C311.1,322.3,311,322.8,310.9,323.2z M305.2,318.2
			c-1,0-1.9,0.3-2.6,1c-0.7,0.6-1,1.4-1.1,2.4h7.2c0-0.9-0.3-1.7-0.9-2.3C307.2,318.5,306.4,318.2,305.2,318.2z"/>
		<path class="st0" d="M313,333.1l1.3-1.9c1.4,0.9,2.6,1.4,3.7,1.4c1,0,1.9-0.2,2.5-0.5c0.6-0.4,0.9-0.8,0.9-1.3
			c0-1.1-0.8-1.6-2.3-1.6c-0.3,0-0.7,0.1-1.4,0.2c-0.7,0.1-1.2,0.2-1.6,0.2c-1.9,0-2.8-0.7-2.8-2.1c0-0.4,0.2-0.8,0.7-1.2
			c0.4-0.4,1-0.6,1.6-0.8c-1.8-0.9-2.8-2.4-2.8-4.5c0-1.4,0.5-2.5,1.4-3.4c1-0.9,2.1-1.4,3.5-1.4c1.3,0,2.3,0.3,3,0.8l1.2-1.4
			l1.5,1.4l-1.4,1.1c0.6,0.8,0.9,1.8,0.9,3c0,1.3-0.4,2.4-1.2,3.3c-0.8,0.9-1.9,1.4-3.2,1.5l-1.9,0.2c-0.2,0-0.5,0.1-0.9,0.3
			c-0.4,0.2-0.6,0.3-0.6,0.6c0,0.3,0.4,0.5,1.2,0.5c0.3,0,0.9-0.1,1.6-0.2s1.3-0.2,1.6-0.2c1.3,0,2.3,0.3,3,0.9s1.1,1.5,1.1,2.6
			c0,1.2-0.5,2.2-1.6,2.9c-1.1,0.7-2.4,1.1-4.1,1.1c-0.8,0-1.7-0.2-2.7-0.5C314.3,333.9,313.6,333.5,313,333.1z M317.9,318.1
			c-0.8,0-1.5,0.3-2,0.9s-0.8,1.3-0.8,2.1c0,0.9,0.2,1.7,0.7,2.3c0.5,0.6,1.2,0.9,2,0.9s1.5-0.3,1.9-0.9c0.5-0.6,0.7-1.3,0.7-2.3
			c0-0.8-0.3-1.5-0.8-2.1C319.3,318.4,318.7,318.1,317.9,318.1z"/>
		<path class="st0" d="M333.2,318.7c-0.5-0.3-1-0.5-1.5-0.5c-0.8,0-1.5,0.4-2.2,1.1c-0.6,0.8-0.9,1.7-0.9,2.7v7.5h-2.3v-13.1h2.3
			v2.1c0.8-1.6,2.1-2.3,3.8-2.3c0.4,0,1,0.1,1.8,0.2L333.2,318.7z"/>
		<path class="st0" d="M343.1,328c-0.9,1.2-2.3,1.7-4.3,1.7c-1,0-1.9-0.4-2.7-1.1c-0.8-0.7-1.1-1.7-1.1-2.8c0-1.3,0.6-2.4,1.7-3.4
			c1.2-0.9,2.6-1.4,4.4-1.4c0.5,0,1,0.1,1.7,0.3c0-2.1-0.9-3.2-2.8-3.2c-1.4,0-2.6,0.4-3.3,1.2l-1-1.9c0.4-0.4,1-0.7,1.8-0.9
			c0.8-0.3,1.5-0.4,2.2-0.4c1.9,0,3.3,0.4,4.1,1.3c0.9,0.9,1.3,2.2,1.3,4.1v4.7c0,1.1,0.3,1.9,1,2.3v1.2c-0.9,0-1.6-0.1-2.1-0.4
			C343.7,329.1,343.4,328.6,343.1,328z M342.9,323.1c-0.7-0.2-1.2-0.2-1.5-0.2c-1.2,0-2.1,0.3-2.9,0.9c-0.7,0.6-1.1,1.3-1.1,2.1
			c0,1.4,0.8,2,2.4,2c1.2,0,2.2-0.6,3.1-1.7V323.1z"/>
		<path class="st0" d="M349.7,318.3h-1.5v-1.8h1.5v-2.8l2.3-0.9v3.6h3.6v1.8H352v6.5c0,1.1,0.2,1.9,0.6,2.3c0.4,0.5,1,0.7,1.8,0.7
			c0.6,0,1.2-0.2,1.8-0.5l0.3,2c-1,0.2-2,0.4-3.2,0.4c-1,0-1.9-0.4-2.6-1.2c-0.7-0.8-1.1-1.7-1.1-2.9v-7.2H349.7z"/>
		<path class="st0" d="M369.8,323.2h-9.4c0,1.5,0.4,2.7,1.3,3.5c0.7,0.7,1.7,1.1,2.9,1.1c1.3,0,2.4-0.4,3.3-1.2l1,1.7
			c-0.4,0.4-0.9,0.7-1.6,0.9c-0.9,0.3-2,0.5-3.1,0.5c-1.6,0-3-0.6-4.2-1.7c-1.3-1.2-1.9-2.9-1.9-5c0-2.2,0.7-3.9,2-5.2
			c1.2-1.2,2.6-1.7,4.2-1.7c1.9,0,3.3,0.5,4.4,1.6c1,1,1.5,2.3,1.5,4C370,322.3,369.9,322.8,369.8,323.2z M364.2,318.2
			c-1,0-1.9,0.3-2.6,1c-0.7,0.6-1,1.4-1.1,2.4h7.2c0-0.9-0.3-1.7-0.9-2.3C366.2,318.5,365.3,318.2,364.2,318.2z"/>
		<path class="st0" d="M380.7,329.5v-1c-0.8,0.8-2,1.2-3.5,1.2c-1.6,0-3-0.6-4-1.8c-1-1.2-1.5-2.7-1.5-4.7s0.6-3.6,1.8-5
			c1.2-1.4,2.6-2.1,4.2-2.1c1.4,0,2.4,0.3,3.1,1V311h2.3v18.4h-2.4V329.5z M380.7,319.5c-0.6-0.9-1.4-1.3-2.4-1.3
			c-1.2,0-2.3,0.5-3,1.4c-0.8,0.9-1.2,2.1-1.2,3.5c0,3.2,1.4,4.7,4.3,4.7c0.4,0,0.8-0.1,1.3-0.3c0.5-0.2,0.8-0.5,1-0.7L380.7,319.5
			L380.7,319.5z"/>
		<path class="st0" d="M405.8,323.2h-9.4c0,1.5,0.4,2.7,1.3,3.5c0.7,0.7,1.7,1.1,2.9,1.1c1.3,0,2.4-0.4,3.3-1.2l1,1.7
			c-0.4,0.4-0.9,0.7-1.6,0.9c-0.9,0.3-2,0.5-3.1,0.5c-1.6,0-3-0.6-4.2-1.7c-1.3-1.2-1.9-2.9-1.9-5c0-2.2,0.7-3.9,2-5.2
			c1.2-1.2,2.6-1.7,4.2-1.7c1.9,0,3.3,0.5,4.4,1.6c1,1,1.5,2.3,1.5,4C406,322.3,405.9,322.8,405.8,323.2z M400.2,318.2
			c-1,0-1.9,0.3-2.6,1c-0.7,0.6-1,1.4-1.1,2.4h7.2c0-0.9-0.3-1.7-0.9-2.3C402.1,318.5,401.3,318.2,400.2,318.2z"/>
		<path class="st0" d="M408.7,323.3v-2.1h5.2v2.1H408.7z"/>
		<path class="st0" d="M427.5,317.5l-1.1,1.6c-0.2-0.2-0.7-0.5-1.3-0.7c-0.6-0.2-1.2-0.3-1.8-0.3c-1.3,0-2.3,0.4-3,1.3
			s-1.1,2.1-1.1,3.6s0.4,2.7,1.1,3.5c0.8,0.8,1.8,1.2,3.1,1.2c1,0,2.1-0.4,3.1-1.2l0.9,2c-1.2,0.8-2.8,1.2-4.6,1.2
			c-1.8,0-3.3-0.6-4.4-1.8c-1.2-1.2-1.7-2.8-1.7-4.9s0.6-3.8,1.8-5c1.2-1.3,2.9-1.9,5-1.9c0.7,0,1.4,0.1,2.2,0.4
			C426.5,316.9,427.1,317.2,427.5,317.5z"/>
		<path class="st0" d="M429.1,323c0-2,0.5-3.6,1.6-4.9c1.1-1.2,2.5-1.9,4.3-1.9c1.9,0,3.3,0.6,4.4,1.8c1,1.2,1.5,2.8,1.5,5
			c0,2.1-0.5,3.8-1.6,5s-2.5,1.8-4.3,1.8c-1.9,0-3.3-0.6-4.4-1.8C429.6,326.7,429.1,325,429.1,323z M431.6,323
			c0,3.3,1.2,4.9,3.5,4.9c1.1,0,1.9-0.4,2.5-1.3s0.9-2.1,0.9-3.6c0-3.2-1.2-4.9-3.5-4.9c-1.1,0-1.9,0.4-2.5,1.3
			C431.9,320.3,431.6,321.4,431.6,323z"/>
		<path class="st0" d="M458.5,329.5v-8.3c0-2.1-0.9-3.1-2.7-3.1c-0.6,0-1.1,0.2-1.6,0.5s-0.8,0.7-1,1.2v9.7H451v-9.3
			c0-0.6-0.2-1.1-0.7-1.5s-1.1-0.6-1.9-0.6c-0.5,0-1,0.2-1.5,0.5c-0.5,0.4-0.9,0.8-1.1,1.2v9.6h-2.3v-13.1h1.5l0.8,1.5
			c0.9-1.2,2-1.8,3.4-1.8c1.9,0,3.2,0.6,3.9,1.7c0.3-0.5,0.7-0.9,1.5-1.2c0.7-0.3,1.4-0.5,2.2-0.5c1.4,0,2.4,0.4,3.1,1.2
			c0.7,0.8,1.1,1.9,1.1,3.4v8.7h-2.5V329.5z"/>
		<path class="st0" d="M479.3,329.5v-8.3c0-2.1-0.9-3.1-2.7-3.1c-0.6,0-1.1,0.2-1.6,0.5s-0.8,0.7-1,1.2v9.7h-2.3v-9.3
			c0-0.6-0.2-1.1-0.7-1.5s-1.1-0.6-1.9-0.6c-0.5,0-1,0.2-1.5,0.5c-0.5,0.4-0.9,0.8-1.1,1.2v9.6h-2.3v-13.1h1.5l0.8,1.5
			c0.9-1.2,2-1.8,3.4-1.8c1.9,0,3.2,0.6,3.9,1.7c0.3-0.5,0.7-0.9,1.5-1.2c0.7-0.3,1.4-0.5,2.2-0.5c1.4,0,2.4,0.4,3.1,1.2
			c0.7,0.8,1.1,1.9,1.1,3.4v8.7h-2.4V329.5z"/>
		<path class="st0" d="M495.9,323.2h-9.4c0,1.5,0.4,2.7,1.3,3.5c0.7,0.7,1.7,1.1,2.9,1.1c1.3,0,2.4-0.4,3.3-1.2l1,1.7
			c-0.4,0.4-0.9,0.7-1.6,0.9c-0.9,0.3-2,0.5-3.1,0.5c-1.6,0-3-0.6-4.2-1.7c-1.3-1.2-1.9-2.9-1.9-5c0-2.2,0.7-3.9,2-5.2
			c1.2-1.2,2.6-1.7,4.2-1.7c1.9,0,3.3,0.5,4.4,1.6c1,1,1.5,2.3,1.5,4C496.1,322.3,496,322.8,495.9,323.2z M490.3,318.2
			c-1,0-1.9,0.3-2.6,1c-0.7,0.6-1,1.4-1.1,2.4h7.2c0-0.9-0.3-1.7-0.9-2.3C492.3,318.5,491.4,318.2,490.3,318.2z"/>
		<path class="st0" d="M505.6,318.7c-0.5-0.3-1-0.5-1.5-0.5c-0.8,0-1.5,0.4-2.2,1.1c-0.6,0.8-0.9,1.7-0.9,2.7v7.5h-2.3v-13.1h2.3
			v2.1c0.8-1.6,2.1-2.3,3.8-2.3c0.4,0,1,0.1,1.8,0.2L505.6,318.7z"/>
		<path class="st0" d="M518.1,317.5l-1.1,1.6c-0.2-0.2-0.7-0.5-1.3-0.7s-1.2-0.3-1.8-0.3c-1.3,0-2.3,0.4-3,1.3s-1.1,2.1-1.1,3.6
			s0.4,2.7,1.1,3.5c0.8,0.8,1.8,1.2,3.1,1.2c1,0,2.1-0.4,3.1-1.2l0.9,2c-1.2,0.8-2.8,1.2-4.6,1.2s-3.3-0.6-4.4-1.8
			c-1.2-1.2-1.7-2.8-1.7-4.9s0.6-3.8,1.8-5c1.2-1.3,2.9-1.9,5-1.9c0.7,0,1.4,0.1,2.2,0.4C517.2,316.9,517.7,317.2,518.1,317.5z"/>
		<path class="st0" d="M531.6,323.2h-9.4c0,1.5,0.4,2.7,1.3,3.5c0.7,0.7,1.7,1.1,2.9,1.1c1.3,0,2.4-0.4,3.3-1.2l1,1.7
			c-0.4,0.4-0.9,0.7-1.6,0.9c-0.9,0.3-2,0.5-3.1,0.5c-1.6,0-3-0.6-4.2-1.7c-1.3-1.2-1.9-2.9-1.9-5c0-2.2,0.7-3.9,2-5.2
			c1.2-1.2,2.6-1.7,4.2-1.7c1.9,0,3.3,0.5,4.4,1.6c1,1,1.5,2.3,1.5,4C531.8,322.3,531.8,322.8,531.6,323.2z M526,318.2
			c-1,0-1.9,0.3-2.6,1c-0.7,0.6-1,1.4-1.1,2.4h7.2c0-0.9-0.3-1.7-0.9-2.3C528,318.5,527.1,318.2,526,318.2z"/>
	</g>
</g>
<g id="_x2022__x2022__x2022__x2022__x2022__-_beeldmerk">
	
		<radialGradient id="SVGID_1_" cx="506.6161" cy="328.2729" r="15.9748" gradientTransform="matrix(1 0 0 -1 0 561.4)" gradientUnits="userSpaceOnUse">
		<stop  offset="0" style="stop-color:#FFFFFF"/>
		<stop  offset="6.665496e-002" style="stop-color:#EFF1F6"/>
		<stop  offset="0.1965" style="stop-color:#C6CEDE"/>
		<stop  offset="0.3765" style="stop-color:#8494B6"/>
		<stop  offset="0.598" style="stop-color:#294681"/>
		<stop  offset="0.6059" style="stop-color:#26437F"/>
	</radialGradient>
	<circle class="st1" cx="508.8" cy="235.4" r="10.6"/>
	
		<radialGradient id="SVGID_2_" cx="485.3574" cy="328.2729" r="15.9747" gradientTransform="matrix(1 0 0 -1 0 561.4)" gradientUnits="userSpaceOnUse">
		<stop  offset="0" style="stop-color:#FFFFFF"/>
		<stop  offset="8.192587e-002" style="stop-color:#EFF1F6"/>
		<stop  offset="0.2413" style="stop-color:#C6CEDE"/>
		<stop  offset="0.4602" style="stop-color:#8595B7"/>
		<stop  offset="0.6176" style="stop-color:#516999"/>
	</radialGradient>
	<circle class="st2" cx="487.6" cy="235.4" r="10.6"/>
	
		<radialGradient id="SVGID_3_" cx="464.0956" cy="328.2729" r="15.9748" gradientTransform="matrix(1 0 0 -1 0 561.4)" gradientUnits="userSpaceOnUse">
		<stop  offset="0" style="stop-color:#FFFFFF"/>
		<stop  offset="0.1042" style="stop-color:#EFF1F6"/>
		<stop  offset="0.307" style="stop-color:#C6CEDE"/>
		<stop  offset="0.586" style="stop-color:#8595B7"/>
		<stop  offset="0.6176" style="stop-color:#7D8EB2"/>
	</radialGradient>
	<circle class="st3" cx="466.3" cy="235.4" r="10.6"/>
	
		<radialGradient id="SVGID_4_" cx="442.8369" cy="328.2729" r="15.9748" gradientTransform="matrix(1 0 0 -1 0 561.4)" gradientUnits="userSpaceOnUse">
		<stop  offset="0" style="stop-color:#FFFFFF"/>
		<stop  offset="0.1473" style="stop-color:#EFF1F6"/>
		<stop  offset="0.4323" style="stop-color:#C7CEDE"/>
		<stop  offset="0.6213" style="stop-color:#A8B4CC"/>
	</radialGradient>
	<circle class="st4" cx="445.1" cy="235.4" r="10.6"/>
	
		<radialGradient id="SVGID_5_" cx="421.5771" cy="328.2729" r="15.9747" gradientTransform="matrix(1 0 0 -1 0 561.4)" gradientUnits="userSpaceOnUse">
		<stop  offset="0" style="stop-color:#FFFFFF"/>
		<stop  offset="0.2634" style="stop-color:#EFF1F6"/>
		<stop  offset="0.6213" style="stop-color:#D4D9E5"/>
	</radialGradient>
	<circle class="st5" cx="423.8" cy="235.4" r="10.6"/>
</g>
<g id="TIE_KINETIX_-_woordlogo">
	<g>
		<path class="st0" d="M226.9,261.3h-16v39.8h-3.3v-39.8h-16v-2.7h35.2L226.9,261.3L226.9,261.3z"/>
		<path class="st0" d="M237.6,301.1h-3.3v-42.5h3.3V301.1z"/>
		<path class="st0" d="M271.7,261.3h-19.9v17h19.4v2.7h-19.4v17.3h20.4v2.7h-23.7v-42.5h23.2V261.3z"/>
		<path class="st0" d="M331.3,301.1h-8.4l-21.6-21v21h-6.1v-42.5h6.1V278l17.9-19.4h7.6l-18.6,20.1L331.3,301.1z"/>
		<path class="st0" d="M342.3,301.1h-6.1v-42.5h6.1V301.1z"/>
		<path class="st0" d="M391.2,301.1H386l-28.4-32.7v32.7h-5.7v-42.5h4.9l28.8,32.9v-32.9h5.7L391.2,301.1L391.2,301.1z"/>
		<path class="st0" d="M424.8,264h-18v12.8h17.4v5.5h-17.4v13.2h18.6v5.5h-24.7v-42.5h24.1V264z"/>
		<path class="st0" d="M467,264h-14.7v37h-6.1v-37h-14.7v-5.5H467V264z"/>
		<path class="st0" d="M480.1,301.1h-6.2v-42.5h6.2V301.1z"/>
		<path class="st0" d="M513.8,279l18.1,22h-7.4L510,283.4L495.3,301h-7.4l18.3-22l-17-20.5h7.4l13.3,16.2l13.3-16.2h7.4L513.8,279z"
			/>
	</g>
</g>
</svg>
